<svg id="np_leader_925154_000000" xmlns="http://www.w3.org/2000/svg" width="88.93" height="97.814" viewBox="0 0 88.93 97.814">
  <path id="Caminho_13303" data-name="Caminho 13303" d="M28.851,39.3A10.648,10.648,0,1,0,18.2,28.655,10.65,10.65,0,0,0,28.851,39.3Zm0-17.7A7.053,7.053,0,1,1,21.8,28.656,7.061,7.061,0,0,1,28.851,21.6Z" transform="translate(-11.837 -7.43)" fill="#bf0e80"/>
  <path id="Caminho_13304" data-name="Caminho 13304" d="M18.6,78.254V95.07a6.951,6.951,0,0,0,6.95,6.95h8.71a6.951,6.951,0,0,0,6.95-6.95V78.254A6.937,6.937,0,0,0,45.077,76.1V94.542a7.482,7.482,0,0,0,7.479,7.479h9.6a7.479,7.479,0,0,0,7.479-7.479V76.1A6.937,6.937,0,0,0,73.5,78.254V95.07a6.951,6.951,0,0,0,6.95,6.95h8.71a6.951,6.951,0,0,0,6.95-6.95l-.009-16.816a6.964,6.964,0,0,0,5.715-6.838V53.135a12.89,12.89,0,0,0-12.89-12.89H80.675c-.22,0-.44,0-.66.019a1.815,1.815,0,0,0-1.736,1.8,1.784,1.784,0,0,0,1.881,1.788c.168-.009.342-.014.515-.014H88.93a9.294,9.294,0,0,1,9.295,9.3V71.416a3.356,3.356,0,0,1-3.356,3.356H92.511v20.3a3.356,3.356,0,0,1-3.356,3.356h-8.71a3.356,3.356,0,0,1-3.356-3.356l0-20.3H74.735a3.3,3.3,0,0,1-1.652-.454,7.463,7.463,0,0,0,2.855-5.86V48.3A14.055,14.055,0,0,0,61.911,34.269h-9.1A14.072,14.072,0,0,0,38.781,48.3V68.453a7.5,7.5,0,0,0,2.855,5.86,3.316,3.316,0,0,1-1.657.454H37.62v20.3a3.356,3.356,0,0,1-3.356,3.356h-8.71A3.356,3.356,0,0,1,22.2,95.065V74.771H19.84a3.356,3.356,0,0,1-3.356-3.356V53.134a9.294,9.294,0,0,1,9.295-9.3h8.256c.262,0,.524.009.782.033a1.813,1.813,0,0,0,2-1.779A1.784,1.784,0,0,0,35.229,40.3q-.59-.056-1.193-.056H25.779a12.89,12.89,0,0,0-12.89,12.89V71.42a6.955,6.955,0,0,0,5.71,6.833ZM42.367,48.3A10.444,10.444,0,0,1,52.8,37.863h9.1A10.444,10.444,0,0,1,72.335,48.3V68.453a3.887,3.887,0,0,1-3.885,3.885H66.03v22.2a3.887,3.887,0,0,1-3.885,3.885h-9.6a3.887,3.887,0,0,1-3.885-3.885l.014-22.193H46.256a3.89,3.89,0,0,1-3.885-3.885Z" transform="translate(-12.89 -4.207)" fill="#bf0e80"/>
  <path id="Caminho_13305" data-name="Caminho 13305" d="M74.671,39.3A10.648,10.648,0,1,0,64.023,28.655,10.65,10.65,0,0,0,74.671,39.3Zm0-17.7a7.053,7.053,0,1,1-7.053,7.053A7.061,7.061,0,0,1,74.671,21.6Z" transform="translate(-2.758 -7.43)" fill="#bf0e80"/>
  <path id="Caminho_13306" data-name="Caminho 13306" d="M52.239,36.26A13.54,13.54,0,1,0,38.7,22.719,13.557,13.557,0,0,0,52.239,36.26Zm0-23.481a9.943,9.943,0,1,1-9.946,9.941A9.958,9.958,0,0,1,52.239,12.778Z" transform="translate(-7.776 -9.179)" fill="#bf0e80"/>
</svg>
