<svg xmlns="http://www.w3.org/2000/svg" width="82.02" height="97.814" viewBox="0 0 82.02 97.814">
  <g id="noun-innovation-2053550" transform="translate(-12.266 -5)">
    <path id="Caminho_57063" data-name="Caminho 57063" d="M45.837,62.016A4.417,4.417,0,0,0,50.246,57.6V30.277a4.412,4.412,0,0,0-8.763-.729A7.261,7.261,0,0,0,35.5,35.909a8.6,8.6,0,0,0,0,16.061,7.262,7.262,0,0,0,5.979,6.361A4.421,4.421,0,0,0,45.837,62.016Zm-3.128-6.3a4.533,4.533,0,0,1-4.53-4.52l-1.357-.06,1.368-.084a1.358,1.358,0,0,0-1.028-1.407,5.882,5.882,0,0,1,0-11.416,1.358,1.358,0,0,0,1.028-1.407c0-.008-.011-.125-.011-.134a4.528,4.528,0,0,1,4.494-4.53,1.359,1.359,0,0,0,1.5-1.555,2.089,2.089,0,0,1-.035-.329,1.695,1.695,0,1,1,3.39,0V57.6a1.695,1.695,0,1,1-3.39,0,2.075,2.075,0,0,1,.035-.329,1.348,1.348,0,0,0-.348-1.149,1.325,1.325,0,0,0-.961-.415A1.55,1.55,0,0,0,42.709,55.718Z" transform="translate(1.538 1.811)" fill="#d3422f"/>
    <path id="Caminho_57064" data-name="Caminho 57064" d="M55.779,62.016a4.42,4.42,0,0,0,4.354-3.685,7.261,7.261,0,0,0,5.979-6.361,8.6,8.6,0,0,0,0-16.061,7.262,7.262,0,0,0-5.979-6.361,4.412,4.412,0,0,0-8.763.729V57.6A4.416,4.416,0,0,0,55.779,62.016Zm-1.692-31.74a1.695,1.695,0,1,1,3.39,0,2.076,2.076,0,0,1-.035.329,1.345,1.345,0,0,0,.348,1.15,1.318,1.318,0,0,0,1.117.405,4.539,4.539,0,0,1,4.528,4.562c0,.012-.008.1-.009.111a1.359,1.359,0,0,0,1.029,1.4,5.882,5.882,0,0,1,0,11.416,1.36,1.36,0,0,0-1.029,1.4c0,.012.011.132.012.143a4.528,4.528,0,0,1-4.493,4.53,1.359,1.359,0,0,0-1.5,1.555,2.1,2.1,0,0,1,.035.329,1.695,1.695,0,1,1-3.39,0V30.277Z" transform="translate(3.395 1.811)" fill="#d3422f"/>
    <path id="Caminho_57065" data-name="Caminho 57065" d="M55.7,99.2a8.993,8.993,0,0,0,7.833-8.9V80.755a10.9,10.9,0,0,0,3.54-8.045,7.655,7.655,0,0,1,.768-3.341,8.054,8.054,0,0,1,2.175-2.72,28.315,28.315,0,1,0-35.422.084,7.577,7.577,0,0,1,2.847,5.978,10.9,10.9,0,0,0,3.217,7.76c.1.1.216.192.323.29V90.3a8.995,8.995,0,0,0,7.833,8.9c.067,1.462,1.577,2.632,3.443,2.632S55.636,100.664,55.7,99.2Zm-1.153-3.178H49.969a5.66,5.66,0,0,1-2.79-.756l12.678-2.846A5.722,5.722,0,0,1,54.551,96.024Zm-10.306-8.83L60.276,83.6v2.133l-16.032,3.6Zm0-2.227v-2.8H56.763Zm.14,6.562,15.892-3.566V90.1L45.214,93.481A5.717,5.717,0,0,1,44.385,91.529ZM36.629,64.183A25.056,25.056,0,0,1,50.609,19.6,25.051,25.051,0,0,1,67.971,64.111a11.3,11.3,0,0,0-3.054,3.822,10.941,10.941,0,0,0-1.1,4.777A7.653,7.653,0,0,1,60.669,78.9H43.843a7.565,7.565,0,0,1-.876-.738A7.666,7.666,0,0,1,40.7,72.71,10.817,10.817,0,0,0,36.629,64.183Z" transform="translate(1.014 0.979)" fill="#d3422f"/>
    <path id="Caminho_57066" data-name="Caminho 57066" d="M13.788,41.334a1.522,1.522,0,0,0,0,3.043h5.765a1.522,1.522,0,0,0,0-3.043Z" transform="translate(0 3.155)" fill="#d3422f"/>
    <path id="Caminho_57067" data-name="Caminho 57067" d="M81.152,41.334a1.522,1.522,0,1,0,0,3.043h5.764a1.522,1.522,0,0,0,0-3.043Z" transform="translate(5.849 3.155)" fill="#d3422f"/>
    <path id="Caminho_57068" data-name="Caminho 57068" d="M28.506,22.761a1.521,1.521,0,0,0,1.076-2.6l-4.076-4.076a1.521,1.521,0,0,0-2.151,2.151l4.076,4.076A1.508,1.508,0,0,0,28.506,22.761Z" transform="translate(0.924 0.924)" fill="#d3422f"/>
    <path id="Caminho_57069" data-name="Caminho 57069" d="M73.138,63.722a1.521,1.521,0,0,0-2.151,2.151l4.076,4.076A1.521,1.521,0,0,0,77.215,67.8Z" transform="translate(5.06 5.06)" fill="#d3422f"/>
    <path id="Caminho_57070" data-name="Caminho 57070" d="M23.354,69.949a1.522,1.522,0,0,0,2.152,0l4.076-4.076a1.521,1.521,0,0,0-2.151-2.151L23.355,67.8A1.519,1.519,0,0,0,23.354,69.949Z" transform="translate(0.924 5.06)" fill="#d3422f"/>
    <path id="Caminho_57071" data-name="Caminho 57071" d="M77.215,16.088a1.52,1.52,0,0,0-2.151,0l-4.076,4.076a1.521,1.521,0,0,0,2.152,2.151l4.076-4.076A1.521,1.521,0,0,0,77.215,16.088Z" transform="translate(5.06 0.924)" fill="#d3422f"/>
    <path id="Caminho_57072" data-name="Caminho 57072" d="M48.6,6.522v5.765a1.522,1.522,0,1,0,3.043,0V6.522a1.522,1.522,0,1,0-3.043,0Z" transform="translate(3.155)" fill="#d3422f"/>
  </g>
</svg>
