<svg xmlns="http://www.w3.org/2000/svg" width="49.667" height="49.667" viewBox="0 0 49.667 49.667">
  <g id="noun-world-623304" transform="translate(-5 -5)">
    <g id="Grupo_37773" data-name="Grupo 37773" transform="translate(9.603 5.545)">
      <path id="Caminho_57111" data-name="Caminho 57111" d="M32.688,51.191a.332.332,0,0,1-.221-.055c-3.7-.993-3.532-4.47-3.421-7.34a11.938,11.938,0,0,0-.166-3.532,4.4,4.4,0,0,0-1.435-1.876,6.126,6.126,0,0,1-1.656-2.042,7.38,7.38,0,0,1-.552-3.256,6.4,6.4,0,0,0-.166-1.821c-.221-.938-.662-1.159-1.545-1.545a14.734,14.734,0,0,1-1.324-.662,13.091,13.091,0,0,1-1.656-1.269,7.689,7.689,0,0,0-1.049-.828,3.916,3.916,0,0,0-1.711-.717c-.166-.055-.331-.055-.5-.11-2.152-.552-2.649-2.373-3.09-3.808a17.476,17.476,0,0,1-.828-6.181.83.83,0,1,1,1.656.11,15.751,15.751,0,0,0,.773,5.629c.441,1.6.773,2.318,1.876,2.649.166.055.331.055.441.11a6.823,6.823,0,0,1,2.318.993,9.005,9.005,0,0,1,1.1.938,8.334,8.334,0,0,0,1.435,1.1,6.867,6.867,0,0,0,1.1.552,3.61,3.61,0,0,1,2.539,2.759,9.44,9.44,0,0,1,.166,2.152,6.149,6.149,0,0,0,.386,2.539,4.689,4.689,0,0,0,1.269,1.49,5.822,5.822,0,0,1,1.931,2.649,12.671,12.671,0,0,1,.276,4.139c-.11,2.263-.055,3.918.828,4.856a3.9,3.9,0,0,1,.386-2.98,5.124,5.124,0,0,1,2.373-1.49,5.337,5.337,0,0,0,1.38-.717,3.234,3.234,0,0,0,1.269-2.483l.055-.166A3.2,3.2,0,0,1,38.7,38.995c.276-.166.552-.331.773-.5.938-.828,2.318-2.759,2.318-4.139a1.374,1.374,0,0,0-.386-1.049,6.274,6.274,0,0,0-1.711-.938,11.03,11.03,0,0,1-1.159-.552,6.757,6.757,0,0,1-1.711-1.545,7.107,7.107,0,0,0-.883-.938,4.216,4.216,0,0,0-1.987-.552c-.441-.055-.828-.11-1.269-.166a17.746,17.746,0,0,1-2.042-.662c-.607-.221-1.159-.441-1.711-.607a7.736,7.736,0,0,0-3.7.221c-1.6.331-2.649.441-3.2-1.711-.11-.386-.5-.552-1.269-.773-.993-.276-2.87-.828-2.207-3.366a3.98,3.98,0,0,1,2.87-2.87,4.4,4.4,0,0,1,3.035.166,12.4,12.4,0,0,1,2.428-4.249c1.6-2.042,2.814-2.263,5.243-2.207h.386a1.677,1.677,0,0,0-.386-.276,3.093,3.093,0,0,1-.993-.883,9.278,9.278,0,0,1-.828-1.656c-.5-1.159-.883-1.931-1.545-2.042a.88.88,0,0,1-.717-.993.841.841,0,0,1,.993-.717c1.656.276,2.318,1.821,2.814,3.035a9.83,9.83,0,0,0,.662,1.324,7.45,7.45,0,0,0,.607.5A2.8,2.8,0,0,1,34.4,12.23a1.38,1.38,0,0,1-.166,1.324,2.135,2.135,0,0,1-1.987.607h-.11c-2.042-.055-2.7.055-3.918,1.545-1.049,1.324-2.207,2.925-2.318,4.636a.762.762,0,0,1-.552.717.864.864,0,0,1-.883-.166,2.716,2.716,0,0,0-2.594-.552,2.433,2.433,0,0,0-1.711,1.711c-.221.993-.055,1.049,1.049,1.324a3.084,3.084,0,0,1,2.483,1.987,1.949,1.949,0,0,0,.221.662c.166,0,.662-.11.993-.166a9.128,9.128,0,0,1,4.415-.166,10.8,10.8,0,0,1,1.876.662,11.748,11.748,0,0,0,1.821.607c.331.055.662.11,1.049.166a5.22,5.22,0,0,1,2.87.938,7.123,7.123,0,0,1,1.1,1.159,4.827,4.827,0,0,0,1.214,1.159l.993.5A6.528,6.528,0,0,1,42.4,32.152a3.161,3.161,0,0,1,.938,2.318c-.055,2.1-1.821,4.415-2.925,5.353-.331.276-.717.5-.993.717-.552.331-.883.552-.993.938l-.055.166a4.883,4.883,0,0,1-1.931,3.421A8.956,8.956,0,0,1,34.675,46,5,5,0,0,0,32.964,47c-.331.386-.055,1.711.055,2.483.055.331.11.662.166.938a.718.718,0,0,1-.276.717C33.075,51.08,32.854,51.191,32.688,51.191Z" transform="translate(-13.341 -5.987)"/>
    </g>
    <g id="Grupo_37774" data-name="Grupo 37774" transform="translate(5 5)">
      <path id="Caminho_57112" data-name="Caminho 57112" d="M29.833,54.667A24.833,24.833,0,1,1,54.667,29.833,24.871,24.871,0,0,1,29.833,54.667Zm0-47.956A23.123,23.123,0,1,0,52.956,29.833,23.151,23.151,0,0,0,29.833,6.711Z" transform="translate(-5 -5)"/>
    </g>
    <g id="Grupo_37775" data-name="Grupo 37775" transform="translate(37.279 7.152)">
      <path id="Caminho_57113" data-name="Caminho 57113" d="M75.306,34.175a3.3,3.3,0,0,1-1.876-.607c-1.987-1.38-2.539-4.58-2.649-5.187a20.531,20.531,0,0,1-.055-3.7c.055-2.152.166-4.36-.883-6.015a6.438,6.438,0,0,0-1.049-1.1c-.662-.552-1.38-1.159-1.269-2.042a1.906,1.906,0,0,1,.883-1.214,7.977,7.977,0,0,0-1.6-.607c-1.545-.441-3.421-.993-3.311-3.973a.856.856,0,1,1,1.711.055c-.055,1.656.607,1.821,2.1,2.263a6.1,6.1,0,0,1,3.256,1.821.879.879,0,0,1,.166.717.9.9,0,0,1-.5.607,4.429,4.429,0,0,0-.993.552,6.043,6.043,0,0,0,.607.552,6.169,6.169,0,0,1,1.435,1.49c1.269,2.1,1.214,4.58,1.1,7.008a16.846,16.846,0,0,0,.055,3.366c.221,1.49.883,3.366,1.931,4.029a1.547,1.547,0,0,0,1.38.221,2.629,2.629,0,0,0,1.1-.993c.5-.607.993-1.324,1.876-1.269.883,0,1.545.828,1.931,1.38a.834.834,0,1,1-1.38.938,2.4,2.4,0,0,0-.607-.662,3.02,3.02,0,0,0-.552.607,3.919,3.919,0,0,1-2.1,1.6A1.381,1.381,0,0,1,75.306,34.175Z" transform="translate(-63.492 -8.9)"/>
    </g>
  </g>
</svg>
