<svg xmlns="http://www.w3.org/2000/svg" width="50.667" height="50.666" viewBox="0 0 50.667 50.666">
  <g id="noun-love-5270081" transform="translate(-8.499 -8.499)">
    <path id="Caminho_57102" data-name="Caminho 57102" d="M32.159,20.324a.99.99,0,0,0,1.4,0L38.5,15.38a4.03,4.03,0,0,0-5.644-5.754,4.03,4.03,0,0,0-5.644,5.753ZM28.615,11.08a2.051,2.051,0,0,1,2.9,0l.645.645a.99.99,0,0,0,1.4,0l.645-.645a2.051,2.051,0,0,1,2.9,2.9l-4.246,4.244L28.615,13.98a2.053,2.053,0,0,1,0-2.9Zm0,0" transform="translate(0.974)"/>
    <path id="Caminho_57103" data-name="Caminho 57103" d="M40.562,26.409a5.22,5.22,0,0,0-7.386,0l-.2.2-.2-.2A5.222,5.222,0,0,0,25.4,33.794l6.883,6.883a.99.99,0,0,0,1.4,0l6.883-6.883a5.228,5.228,0,0,0,0-7.386Zm-1.4,5.986-6.183,6.183L26.8,32.395a3.243,3.243,0,0,1,4.586-4.586l.9.9a.99.99,0,0,0,1.4,0l.9-.9a3.243,3.243,0,0,1,4.586,4.586Zm0,0" transform="translate(0.854 0.91)"/>
    <path id="Caminho_57104" data-name="Caminho 57104" d="M16.569,24.551h6.992a.99.99,0,0,0,.99-.99V16.569a4.03,4.03,0,0,0-8.059-.077,4.03,4.03,0,0,0,.077,8.059Zm0-6.08h.912a.99.99,0,0,0,.99-.99v-.912a2.051,2.051,0,0,1,4.1,0v6h-6a2.05,2.05,0,0,1,0-4.1Zm0,0" transform="translate(0.224 0.224)"/>
    <path id="Caminho_57105" data-name="Caminho 57105" d="M20.324,33.559a.99.99,0,0,0,0-1.4L15.38,27.215a4.03,4.03,0,0,0-5.754,5.644A4.03,4.03,0,0,0,15.38,38.5ZM11.08,37.1a2.051,2.051,0,0,1,0-2.9l.645-.645a.99.99,0,0,0,0-1.4l-.645-.645a2.051,2.051,0,0,1,2.9-2.9l4.245,4.245L13.98,37.1a2.052,2.052,0,0,1-2.9,0Zm0,0" transform="translate(0 0.974)"/>
    <path id="Caminho_57106" data-name="Caminho 57106" d="M23.562,41.081H16.57a4.03,4.03,0,0,0-.077,8.059,4.03,4.03,0,0,0,8.059-.077V42.07a.991.991,0,0,0-.99-.989Zm-.99,7.982a2.051,2.051,0,1,1-4.1,0v-.912a.99.99,0,0,0-.99-.99h-.912a2.051,2.051,0,0,1,0-4.1h6v6Zm0,0" transform="translate(0.224 1.81)"/>
    <path id="Caminho_57107" data-name="Caminho 57107" d="M33.559,45.313a.99.99,0,0,0-1.4,0l-4.944,4.944a4.03,4.03,0,0,0,5.644,5.753A4.03,4.03,0,0,0,38.5,50.257ZM37.1,54.558a2.051,2.051,0,0,1-2.9,0l-.645-.645a.99.99,0,0,0-1.4,0l-.645.645a2.051,2.051,0,1,1-2.9-2.9l4.244-4.244L37.1,51.657a2.051,2.051,0,0,1,0,2.9Zm0,0" transform="translate(0.974 2.029)"/>
    <path id="Caminho_57108" data-name="Caminho 57108" d="M49.063,41.081H42.07a.99.99,0,0,0-.99.99v6.993a4.03,4.03,0,0,0,8.059.077,4.03,4.03,0,0,0-.076-8.06Zm0,6.08h-.912a.991.991,0,0,0-.99.99v.912a2.051,2.051,0,1,1-4.1,0v-6h6a2.05,2.05,0,1,1,0,4.1Zm0,0" transform="translate(1.81 1.81)"/>
    <path id="Caminho_57109" data-name="Caminho 57109" d="M55.956,27.215a4.035,4.035,0,0,0-5.7,0l-4.944,4.944a.99.99,0,0,0,0,1.4L50.257,38.5a4.03,4.03,0,0,0,5.753-5.644,4.027,4.027,0,0,0-.054-5.644Zm-2.045,6.344.645.645a2.051,2.051,0,0,1-2.9,2.9l-4.244-4.245,4.244-4.245a2.051,2.051,0,0,1,2.9,2.9l-.645.645a.992.992,0,0,0,0,1.4Zm0,0" transform="translate(2.029 0.974)"/>
    <path id="Caminho_57110" data-name="Caminho 57110" d="M42.07,24.551h6.993a4.03,4.03,0,0,0,.077-8.059,4.03,4.03,0,0,0-8.059.077v6.992a.989.989,0,0,0,.989.99Zm.99-7.982a2.051,2.051,0,0,1,4.1,0v.912a.99.99,0,0,0,.99.99h.912a2.051,2.051,0,1,1,0,4.1h-6v-6Zm0,0" transform="translate(1.81 0.224)"/>
  </g>
</svg>
