<svg xmlns="http://www.w3.org/2000/svg" width="97.114" height="92.085" viewBox="0 0 97.114 92.085">
  <g id="noun-sustainability-323406" transform="translate(-5.98 -8.26)">
    <path id="Caminho_57061" data-name="Caminho 57061" d="M100.688,42.853a8.2,8.2,0,0,0-11.606,0l-12.5,12.5a8.138,8.138,0,0,0-2.133-1.016l-.1-.028a8.344,8.344,0,0,0-.963-.221c-.081-.013-.16-.028-.24-.04a8.16,8.16,0,0,0-1.117-.084h0l-37.683.007a13,13,0,0,0-9.067,3.679L6.626,76.283a2.206,2.206,0,0,0,0,3.121L23.6,96.382a2.206,2.206,0,0,0,3.121,0l8-8h28.65a8.145,8.145,0,0,0,5.8-2.4l31.518-31.518a8.206,8.206,0,0,0,0-11.61Zm-3.119,8.488L66.051,82.86a3.772,3.772,0,0,1-2.687,1.111H33.8a2.207,2.207,0,0,0-1.561.646L25.162,91.7,11.307,77.845,28.366,60.8a8.584,8.584,0,0,1,5.979-2.417l37.683-.008a3.767,3.767,0,0,1,2.921,1.413c.034.042.077.074.114.114a3.789,3.789,0,0,1-3.03,6.065H51.242a2.206,2.206,0,0,0,0,4.412H72.034a8.151,8.151,0,0,0,7.414-11.652L92.2,45.973a3.886,3.886,0,0,1,5.366,0,3.792,3.792,0,0,1,0,5.368Z" transform="translate(0 3.317)" fill="#50ad43"/>
    <path id="Caminho_57062" data-name="Caminho 57062" d="M48.906,50.066a2.161,2.161,0,0,0,.268-.025c.06.007.116.021.176.022.172,0,.343,0,.514,0a28.171,28.171,0,0,0,28.172-28.69A2.207,2.207,0,0,0,75.87,19.21,27.792,27.792,0,0,0,58.7,24.646,27.953,27.953,0,0,0,50.439,8.88a2.206,2.206,0,0,0-3.064,0,28.173,28.173,0,0,0,0,40.572A2.2,2.2,0,0,0,48.906,50.066ZM66.671,38.7A23.517,23.517,0,0,1,53.983,45.3a27.873,27.873,0,0,0,5.052-15.169,23.531,23.531,0,0,1,14.53-6.45A23.559,23.559,0,0,1,66.671,38.7ZM48.906,13.672a23.77,23.77,0,0,1,0,30.982,23.763,23.763,0,0,1,0-30.982Z" transform="translate(3.378 0)" fill="#50ad43"/>
  </g>
</svg>
