<svg xmlns="http://www.w3.org/2000/svg" width="76.997" height="38.507" viewBox="0 0 76.997 38.507">
  <g id="noun-infinite-5191448" transform="translate(-111.346 -143.137)">
    <path id="Caminho_57099" data-name="Caminho 57099" d="M136.722,143.137a21.67,21.67,0,0,0-15.014,6.346,3.207,3.207,0,0,0,4.45,4.62,14.954,14.954,0,0,1,10.562-4.547,12.844,12.844,0,1,1,0,25.67c-5.315,0-9.006-2.636-11.722-5.825a25.706,25.706,0,0,1-4.428-7.838,3.211,3.211,0,1,0-6.2,1.658,28.276,28.276,0,0,0,5.754,10.325,21.742,21.742,0,0,0,16.6,8.1,19.261,19.261,0,1,0,0-38.5Z" transform="translate(32.371 0)" fill="#1fb6dc"/>
    <path id="Caminho_57100" data-name="Caminho 57100" d="M117.671,145.335a3.209,3.209,0,0,0-2.3.9c-.2.2-.414.368-.616.545A3.213,3.213,0,0,0,119,151.609c.287-.251.546-.51.805-.758a3.209,3.209,0,0,0-2.129-5.517Z" transform="translate(25.779 24.44)" fill="#1fb6dc"/>
    <path id="Caminho_57101" data-name="Caminho 57101" d="M130.6,143.137a19.261,19.261,0,1,0,0,38.5,21.936,21.936,0,0,0,2.392-.142,3.2,3.2,0,1,0-.687-6.37,16.5,16.5,0,0,1-1.705.1,12.844,12.844,0,1,1,0-25.669c5.315,0,9.006,2.636,11.722,5.825a25.713,25.713,0,0,1,4.428,7.838,3.211,3.211,0,1,0,6.2-1.658,28.273,28.273,0,0,0-5.754-10.325,21.741,21.741,0,0,0-16.6-8.1Z" transform="translate(0 0)" fill="#1fb6dc"/>
  </g>
</svg>
