<svg xmlns="http://www.w3.org/2000/svg" width="55.727" height="55.77" viewBox="0 0 55.727 55.77">
  <g id="noun-brazil-2624453" transform="translate(9.104 -34.564)">
    <path id="Caminho_57114" data-name="Caminho 57114" d="M46.561,51.939a1.147,1.147,0,0,0-.99-.978c-.933-.114-1.877-1.24-2.708-2.23-.876-1.047-1.627-1.945-2.651-2.139a1.121,1.121,0,0,0-.193-.023c-.4,0-.83,0-1.251.011-.319,0-.648.011-.967.011-.421,0-.739-.011-1.024-.034a64.424,64.424,0,0,1-7.167-2.787c-.819-.353-1.456-.626-1.82-.774-.273-.1-.546-.216-.842-.341-.569-.239-1.16-.489-1.741-.683l-.2-.1v-.785l-.057-3.322a1.148,1.148,0,0,0-.739-1.047,1.131,1.131,0,0,0-1.24.307l-.751.83c-.353.023-.683.034-1,.034a12.587,12.587,0,0,1-1.365-.08c-.262-.023-.489-.046-.728-.046-1.229,0-1.957.683-3.492,2.241l-.057.057c-.057,0-.137-.011-.216-.011-.159-.011-.364-.023-.614-.023h-.057c-.387,0-.785.011-1.172.023-.364.011-.705.023-1.012.023V35.705a1.142,1.142,0,0,0-1.32-1.126c-.114.023-.535.057-.91.08-3.163.228-3.993.41-4.482.967a1.084,1.084,0,0,0-.284.728L5.458,39.46a24.76,24.76,0,0,1-1.832,1.854c-.58.546-1.035.99-1.4,1.365-.148-.159-.307-.341-.432-.5a4.526,4.526,0,0,0-3.549-2.116c-.125,0-.262.011-.4.023a1.154,1.154,0,0,0-1.024,1.138V48.3c-2.309.944-5.836,2.594-5.927,5.608a1.14,1.14,0,0,0,.592,1.035,3.568,3.568,0,0,1,.887.91A5.083,5.083,0,0,0-6.088,57.3a3.622,3.622,0,0,0,1.775.421c1.866,0,3.97-1.115,5.506-1.923.273-.148.546-.284.774-.4.273-.137.569-.3.842-.444.159-.08.319-.171.478-.25L3.331,59a1.117,1.117,0,0,0,.512.944c.216.137.444.284,4.073,1.206,1.445.364,2.969.728,3.993.978,0,.1-.011.2-.011.3-.068,1.672-.137,3.117.91,3.675a1.015,1.015,0,0,0,.512.137c.751.011,1.49.011,2.116.011h.83l.011,7.554a1.138,1.138,0,0,0,.375.842,1.165,1.165,0,0,0,.887.284l.25-.023c.3.33.683.694,1.1,1.081a12.6,12.6,0,0,1,1.706,1.8c.023.273.011.694,0,1.081-.011.25-.011.489-.011.694,0,.319.011.648.011.978.011.819.023,1.65-.011,2.412a14.213,14.213,0,0,0-1.183,1.183A12.985,12.985,0,0,1,18.325,85.2a1.133,1.133,0,0,0-.432,1.3c.307.91,1.65,1.479,2.389,1.729.273.466.614,1.092.694,1.286a1.135,1.135,0,0,0,.683.739,1.049,1.049,0,0,0,.41.08.952.952,0,0,0,.626-.216,7.6,7.6,0,0,0,1.752-2.15.024.024,0,0,0,.023-.023,1.93,1.93,0,0,1,.262-.33,3.508,3.508,0,0,0,.648-.944,5.469,5.469,0,0,0,1.8-3.2c.046-1.6.046-2.776,0-3.561a32.7,32.7,0,0,0,2.389-2.321c.956-.978,1.9-2,2.423-2.594l3.7-.034a1.121,1.121,0,0,0,.967-.546l.9-1.468a6.936,6.936,0,0,0,.91-1.195,8.93,8.93,0,0,0,.694-1.24l.182-.182a.651.651,0,0,0,.08-.091,2.8,2.8,0,0,0,.717-2.059V63.236c0-.148-.011-.512,0-.705a5.021,5.021,0,0,0,.3-.466c.375-.353.887-.785,1.422-1.229,2.127-1.763,4.778-3.97,4.767-6.632v-.535A12.551,12.551,0,0,0,46.561,51.939Zm-2.2,1.729v.58c0,1.581-2.275,3.481-3.948,4.869a20.218,20.218,0,0,0-1.706,1.49,1.1,1.1,0,0,0-.216.3,1.288,1.288,0,0,1-.2.33c-.444.569-.444.978-.421,2.059v4.9c0,.353,0,.375-.171.592l-.319.319a1.181,1.181,0,0,0-.3.535,9.877,9.877,0,0,1-1.058,1.65,1.208,1.208,0,0,0-.307.33l-.671,1.1-3.572.023a1.126,1.126,0,0,0-.853.4,58.659,58.659,0,0,1-5.085,5.2,1.132,1.132,0,0,0-.671,1.229,27.281,27.281,0,0,1,.046,3.845A3.87,3.87,0,0,1,23.876,85a1.155,1.155,0,0,0-.569.785,1.6,1.6,0,0,1-.262.341,4.286,4.286,0,0,0-.489.614c-.1.148-.193.284-.284.41-.1-.193-.2-.353-.262-.455a1.131,1.131,0,0,0-.705-.523,4.181,4.181,0,0,1-.523-.182,3.24,3.24,0,0,0,.262-.3c.33-.341.876-.921,1.092-1.081a1.136,1.136,0,0,0,.671-.944c.08-.99.068-2.093.057-3.151-.011-.33-.011-.648-.011-.956,0-.171.011-.387.011-.626.011-.5.023-1.024-.011-1.422-.091-.944-.967-1.832-2.412-3.174a10.769,10.769,0,0,1-1.217-1.229,1.142,1.142,0,0,0-.671-.478l-.011-7.474a1.132,1.132,0,0,0-1.092-1.138L16.88,64H14.138c-.023-.444.011-1.058.023-1.445a10.051,10.051,0,0,0,0-1.445,1.126,1.126,0,0,0-.865-.967c-2.56-.6-6.223-1.513-7.7-1.945l-.057-5.233a1.148,1.148,0,0,0-.466-.91,1.123,1.123,0,0,0-1-.171,14.775,14.775,0,0,0-2.332,1.081q-.41.222-.785.41c-.25.114-.523.262-.819.421-1.251.66-3.151,1.661-4.448,1.661a1.53,1.53,0,0,1-.694-.148,3.3,3.3,0,0,1-.83-.853,7.8,7.8,0,0,0-.876-.99c.6-1.524,3.515-2.685,4.983-3.276l.125-.046A1.137,1.137,0,0,0-.89,49.084v-6.45a5.329,5.329,0,0,1,.944.99,3.913,3.913,0,0,0,2.2,1.661,1.134,1.134,0,0,0,1.16-.478,21,21,0,0,1,1.8-1.832c1.581-1.513,2.252-2.184,2.469-2.8a.985.985,0,0,0,.068-.364l.046-2.605c.683-.1,1.8-.193,2.446-.239v4.175a1.144,1.144,0,0,0,.865,1.1,5.776,5.776,0,0,0,1.422.125c.341,0,.705-.011,1.069-.023s.751-.023,1.1-.023h.046c.182,0,.341.011.489.023.125,0,.25.011.375.011a2.123,2.123,0,0,0,1.65-.739c1.388-1.4,1.65-1.559,1.877-1.559a4.787,4.787,0,0,1,.5.034,15.668,15.668,0,0,0,1.593.091c.478,0,.967-.023,1.5-.068l.023,1.024V42.6a1.137,1.137,0,0,0,.626,1.012l.9.455c.046.023.1.046.159.068.523.171,1.1.41,1.661.648.284.125.592.25.876.364.33.125.99.41,1.763.739,4.334,1.854,6.871,2.878,7.872,2.958.341.034.728.046,1.206.046.341,0,.683,0,1.012-.011.364-.011.705-.011,1.024-.011a7.379,7.379,0,0,1,1.3,1.342A8.889,8.889,0,0,0,44.365,53Z" transform="translate(0)"/>
    <path id="Caminho_57115" data-name="Caminho 57115" d="M225.277,159.51a7.392,7.392,0,0,0-14.243,1.945c-.023.25-.034.489-.034.739a7.4,7.4,0,1,0,14.345-2.548Zm-6.883-2.435a5.14,5.14,0,0,1,4.243,2.253c-.011,0-.034.011-.046.011-.489.125-.99.25-1.49.364l-.148.034c-.159.034-.307.068-.466.091-.125.023-.25.045-.364.068-.2.034-.41.08-.626.114a33.785,33.785,0,0,1-5.563.466h-.364A5.1,5.1,0,0,1,218.395,157.075Zm0,10.239a5.125,5.125,0,0,1-5.085-4.562h.626a35.761,35.761,0,0,0,5.938-.5,33.055,33.055,0,0,0,3.584-.785,5.371,5.371,0,0,1,.057.728A5.127,5.127,0,0,1,218.395,167.314Z" transform="translate(-195.064 -106.558)"/>
  </g>
</svg>
